<svg xmlns="http://www.w3.org/2000/svg" viewBox="0 0 512 512"><path d="M380 480c-1.9 1-1.7 1.3.1.4l1.5-1c0-.3 0-.3-1.6.6m3.8-2.1.2.3 1.1-.8zm2.5-1.5.2.3 1.1-.8zm2.5-1.5.1.2 1.1-.8zm3.4-2.2c-1.7 1.2-2.4 1.9-.8 1.1l2.6-2.1zM239.2.1c-1.2.1-4.7.4-7.7.7-72.8 6.6-140.8 45.8-184 106.1-23.9 33-39.3 71.5-45.2 111.8C.3 232.8 0 236.9 0 256s.3 23.2 2.3 37.2C16.2 389.4 84.6 470.1 177.4 500c16.7 5.3 34.2 9 54.1 11.3 7.7.8 41.2.8 49 0 34.4-3.8 63.5-12.3 92.3-27 4.4-2.2 5.2-2.8 4.7-3.3-14.1-18.6-27.9-37.2-41.7-55.9l-40.9-55.2-51.2-75.9c-17.1-25.4-34.2-50.7-51.7-75.9-.2 0-.4 33.7-.5 74.9-.2 72.1-.2 75-1.1 76.7-.9 2-2.4 3.7-4.4 4.6-1.6.7-3 .9-10.6.9h-8.7l-2.3-1.4c-1.4-.9-2.6-2.2-3.3-3.7l-1.1-2.3.1-100.3.2-100.3 1.6-2 3.7-3c2.1-1 2.9-1.2 11.6-1.2 10.2 0 11.8.4 14.5 3.3 20.7 30.9 41.4 61.9 61.7 93 33.3 50.4 78.7 119.2 101 153l40.6 61.4 2-1.3c19.5-13 37.2-28.5 52.6-46.2 32.3-36.9 53.2-82.3 60.3-130.8 2.1-14.1 2.3-18.2 2.3-37.3s-.3-23.2-2.3-37.2c-14.2-96.3-82.6-177-175.3-206.9-17.3-5.5-35.2-9.2-53.2-11.1-4.9-.6-38-1.2-42.2-.8M344 155c2.4 1.1 4.2 3.3 5.1 5.8.4 1.3.5 29.2.4 91.8l-.2 90-15.8-24.3-15.9-24.3v-65.3c0-42.4.2-66.1.4-67.3.7-2.7 2.6-4.9 5-6.3 2-1 2.7-1.1 10.7-1.1 7.4-.1 8.6 0 10.3 1"/></svg>