<svg xmlns="http://www.w3.org/2000/svg" xmlns:xlink="http://www.w3.org/1999/xlink" width="535" height="535" viewBox="0 0 501.563 501.562"><linearGradient id="a" x1="271.247" x2="360.737" y1="-703.74" y2="-548.963" gradientUnits="userSpaceOnUse"><stop offset="0" stop-color="#699ad7"/><stop offset=".243" stop-color="#7eb1dd"/><stop offset="1" stop-color="#7ebae4"/></linearGradient><linearGradient id="d" x1="280.497" x2="368.399" y1="-709.005" y2="-553.627" gradientUnits="userSpaceOnUse"><stop offset="0" stop-color="#415e9a"/><stop offset=".232" stop-color="#4a6baf"/><stop offset="1" stop-color="#5277c3"/></linearGradient><g transform="translate(-156.474 966.495)scale(.99994)"><path id="b" fill="url(#a)" fill-rule="evenodd" d="m309.549-710.388 122.197 211.675-56.157.527-32.624-56.87-32.856 56.566-27.903-.011-14.29-24.69 46.81-80.49-33.23-57.826z"/><use xlink:href="#b" width="100%" height="100%" transform="rotate(60 407.112 -715.787)"/><use xlink:href="#b" width="100%" height="100%" transform="rotate(-60 407.312 -715.7)"/><use xlink:href="#b" width="100%" height="100%" transform="rotate(180 407.419 -715.756)"/><path id="e" fill="url(#d)" fill-rule="evenodd" d="m309.549-710.388 122.197 211.675-56.157.527-32.624-56.87-32.856 56.566-27.903-.011-14.29-24.69 46.81-80.49-33.23-57.826z"/><use xlink:href="#e" width="100%" height="100%" transform="rotate(120 407.34 -716.084)"/><use xlink:href="#e" width="100%" height="100%" transform="rotate(-120 407.288 -715.87)"/></g></svg>