<svg xmlns="http://www.w3.org/2000/svg" xmlns:xlink="http://www.w3.org/1999/xlink" width="512" height="512"><linearGradient id="a"><stop offset="0" stop-color="#191d23"/><stop offset="1" stop-color="#05070a"/></linearGradient><linearGradient xlink:href="#a" id="f" x1="3" x2="20.49" y1="3" y2="20.49" gradientUnits="userSpaceOnUse"/><filter id="b" width="1.014" height="1.014" x="-.007" y="-.007" color-interpolation-filters="sRGB"><feGaussianBlur result="blur" stdDeviation=".05"/><feComposite in="SourceGraphic" in2="blur" operator="in" result="composite1"/><feComposite in="composite1" in2="composite1" operator="in" result="composite2"/></filter><linearGradient id="h" x1="3" x2="21" y1="3" y2="21" gradientUnits="userSpaceOnUse"><stop offset="0" stop-color="#494e8f"/><stop offset="1" stop-color="#6572cc"/></linearGradient><linearGradient xlink:href="#a" id="k" x1="1.565" x2="19.565" y1="2.043" y2="20.043" gradientUnits="userSpaceOnUse"/><linearGradient xlink:href="#a" id="q" x1="2.007" x2="22" y1="4.023" y2="20" gradientUnits="userSpaceOnUse"/><linearGradient xlink:href="#a" id="s" x1="29.295" x2="99.151" y1="67.993" y2="138.148" gradientUnits="userSpaceOnUse"/><linearGradient xlink:href="#a" id="t" x1="9.445" x2="11.759" y1="10.832" y2="13.162" gradientUnits="userSpaceOnUse"/><filter id="e" width="1.054" height="1.054" x="-.027" y="-.027" color-interpolation-filters="sRGB"><feGaussianBlur result="blur" stdDeviation=".01"/><feComposite in="SourceGraphic" in2="blur" operator="in" result="composite1"/><feComposite in="composite1" in2="composite1" operator="in" result="fbSourceGraphic"/><feColorMatrix in="fbSourceGraphic" result="fbSourceGraphicAlpha" values="0 0 0 -1 0 0 0 0 -1 0 0 0 0 -1 0 0 0 0 1 0"/><feColorMatrix in="fbSourceGraphic" values="1 0 0 0 0 0 1 0 0 0 0 0 1 0 0 0 0 0 1 1"/><feColorMatrix result="colormatrix2" type="hueRotate" values="0"/><feColorMatrix in="colormatrix2" result="colormatrix3" values="-1 0 0 0 1 0 -1 0 0 1 0 0 -1 0 1 0 0 0 1 0"/><feBlend in="colormatrix3" in2="colormatrix2" mode="darken" result="blend1"/><feBlend in2="blend1" mode="screen" result="blend2"/><feComposite in2="fbSourceGraphic" operator="in" result="fbSourceGraphic"/><feColorMatrix in="fbSourceGraphic" result="fbSourceGraphicAlpha" values="0 0 0 -1 0 0 0 0 -1 0 0 0 0 -1 0 0 0 0 1 0"/><feColorMatrix in="fbSourceGraphic" values="1 0 0 0 0 0 1 0 0 0 0 0 1 0 0 0 0 0 1 1"/><feColorMatrix result="colormatrix2" type="hueRotate" values="0"/><feColorMatrix in="colormatrix2" result="colormatrix3" values="-1 0 0 0 1 0 -1 0 0 1 0 0 -1 0 1 0 0 0 1 0"/><feBlend in="colormatrix3" in2="colormatrix2" mode="darken" result="blend1"/><feBlend in2="blend1" mode="screen" result="blend2"/><feComposite in2="fbSourceGraphic" operator="in"/></filter><filter id="v" color-interpolation-filters="sRGB"><feColorMatrix values="1 0 0 0 0 0 1 0 0 0 0 0 1 0 0 0 0 0 1 1"/><feColorMatrix result="colormatrix2" type="hueRotate" values="0"/><feColorMatrix in="colormatrix2" result="colormatrix3" values="-1 0 0 0 1 0 -1 0 0 1 0 0 -1 0 1 0 0 0 1 0"/><feBlend in="colormatrix3" in2="colormatrix2" mode="darken" result="blend1"/><feBlend in2="blend1" mode="screen" result="blend2"/><feComposite in2="SourceGraphic" operator="in"/></filter><filter id="u" width="1" height="1" x="0" y="0" color-interpolation-filters="sRGB"><feColorMatrix values="1 0 0 0 0 0 1 0 0 0 0 0 1 0 0 0 0 0 1 1"/><feColorMatrix result="colormatrix2" type="hueRotate" values="0"/><feColorMatrix in="colormatrix2" result="colormatrix3" values="-1 0 0 0 1 0 -1 0 0 1 0 0 -1 0 1 0 0 0 1 0"/><feBlend in="colormatrix3" in2="colormatrix2" mode="darken" result="blend1"/><feBlend in2="blend1" mode="screen" result="blend2"/><feComposite in2="SourceGraphic" operator="in"/></filter><filter id="r" width="1" height="1" x="0" y="0" color-interpolation-filters="sRGB"><feColorMatrix values="1 0 0 0 0 0 1 0 0 0 0 0 1 0 0 0 0 0 1 1"/><feColorMatrix result="colormatrix2" type="hueRotate" values="0"/><feColorMatrix in="colormatrix2" result="colormatrix3" values="-1 0 0 0 1 0 -1 0 0 1 0 0 -1 0 1 0 0 0 1 0"/><feBlend in="colormatrix3" in2="colormatrix2" mode="darken" result="blend1"/><feBlend in2="blend1" mode="screen" result="blend2"/><feComposite in2="SourceGraphic" operator="in"/></filter><filter id="l" width="1" height="1" x="0" y="0" color-interpolation-filters="sRGB"><feColorMatrix values="1 0 0 0 0 0 1 0 0 0 0 0 1 0 0 0 0 0 1 1"/><feColorMatrix result="colormatrix2" type="hueRotate" values="0"/><feColorMatrix in="colormatrix2" result="colormatrix3" values="-1 0 0 0 1 0 -1 0 0 1 0 0 -1 0 1 0 0 0 1 0"/><feBlend in="colormatrix3" in2="colormatrix2" mode="darken" result="blend1"/><feBlend in2="blend1" mode="screen" result="blend2"/><feComposite in2="SourceGraphic" operator="in"/></filter><filter id="j" width="1" height="1" x="0" y="0" color-interpolation-filters="sRGB"><feColorMatrix values="1 0 0 0 0 0 1 0 0 0 0 0 1 0 0 0 0 0 1 1"/><feColorMatrix result="colormatrix2" type="hueRotate" values="0"/><feColorMatrix in="colormatrix2" result="colormatrix3" values="-1 0 0 0 1 0 -1 0 0 1 0 0 -1 0 1 0 0 0 1 0"/><feBlend in="colormatrix3" in2="colormatrix2" mode="darken" result="blend1"/><feBlend in2="blend1" mode="screen" result="blend2"/><feComposite in2="SourceGraphic" operator="in"/></filter><filter id="g" width="1" height="1" x="0" y="0" color-interpolation-filters="sRGB"><feColorMatrix values="1 0 0 0 0 0 1 0 0 0 0 0 1 0 0 0 0 0 1 1"/><feColorMatrix result="colormatrix2" type="hueRotate" values="0"/><feColorMatrix in="colormatrix2" result="colormatrix3" values="-1 0 0 0 1 0 -1 0 0 1 0 0 -1 0 1 0 0 0 1 0"/><feBlend in="colormatrix3" in2="colormatrix2" mode="darken" result="blend1"/><feBlend in2="blend1" mode="screen" result="blend2"/><feComposite in2="SourceGraphic" operator="in"/></filter><linearGradient id="d" x1="4.75" x2="14.243" y1="9.503" y2="9.503" gradientUnits="userSpaceOnUse"><stop offset="0" stop-color="#2d394a"/><stop offset="1" stop-color="#35475e"/></linearGradient><g filter="url(#b)" transform="translate(-87.822 -87.822)scale(29.27387)"><circle cx="9.497" cy="9.503" r="4.503" fill="url(#d)" filter="url(#e)" transform="matrix(1.0572 0 0 1.03575 -.453 -.317)"/><path fill="url(#f)" d="M15.5 14h-.79l-.28-.27A6.47 6.47 0 0 0 16 9.5 6.5 6.5 0 1 0 9.5 16c1.61 0 3.09-.59 4.23-1.57l.27.28v.79l5 4.99c.528-.963.528-.963 1.49-1.49zm-6 0C7.01 14 5 11.99 5 9.5S7.01 5 9.5 5 14 7.01 14 9.5 11.99 14 9.5 14" filter="url(#g)"/><g fill="url(#h)" filter="url(#j)" transform="matrix(.13257 0 0 .13257 6.992 5.517)"><path fill="url(#k)" d="M19.565 18.043v-14c0-1.1-.9-2-2-2h-14c-1.1 0-2 .9-2 2v14c0 1.1.9 2 2 2h14c1.1 0 2-.9 2-2m-12.5-5.5 2.5 3.01 3.5-4.51 4.5 6h-14z"/></g><g filter="url(#l)" transform="matrix(.1156 0 0 .14914 10.611 7.098)"><path fill="url(#q)" d="m18 4 2 4h-3l-2-4h-2l2 4h-3l-2-4H8l2 4H7L5 4H4c-1.1 0-1.99.9-1.99 2L2 18c0 1.1.9 2 2 2h16c1.1 0 2-.9 2-2V4z"/></g><g filter="url(#r)" transform="translate(5.01 6.453)scale(.03416)"><path fill="url(#s)" d="M91.39 67.993H37.057c-4.27 0-7.762 3.507-7.762 7.795v54.565c0 4.287 3.493 7.795 7.762 7.795H91.39c4.269 0 7.761-3.508 7.761-7.795V75.788c0-4.288-3.492-7.795-7.761-7.795m-19.405 54.565H44.82v-7.795h27.166zm11.643-15.59h-38.81v-7.795h38.81zm0-15.59h-38.81v-7.795h38.81z"/></g><path fill="url(#t)" d="M11.56 10.745H9.665a.314.314 0 0 0-.316.31v1.865c0 .171.143.311.316.311h1.897c.174 0 .316-.14.316-.31v-1.866c0-.17-.142-.31-.316-.31m-.316.777h-.474v.854a.39.39 0 0 1-.395.389c-.218 0-.395-.174-.395-.389s.177-.388.395-.388c.09 0 .17.03.237.079v-.856h.632z" filter="url(#u)"/><g filter="url(#v)" transform="matrix(.0503 -.03312 .04943 .038 7.71 11.148)"/><g stroke="#05070a" stroke-linecap="round" stroke-linejoin="bevel" stroke-width=".171" filter="url(#e)"><g fill="#6c5353"><path d="m7.272 8.09-1.052.691M8.342 8.881l.978-.707M8.321 11.09l1.105-.238M12.923 10.081l-1.153.742M9.513 8.09l1.37-.265M6.148 11.139l3.245 1.94M9.5 5.858l3.547 1.837M9.664 10.745l1.267-.728M6.058 8.889l-.87-.681M7.258 5.886l-.176-.185M9.5 5.858l.399-.84M11.761 13.16l.166.132M9.508 13.19l-.784.744M6.047 11.041l-.672.264M9.455 8.137l.094 2.63M13.154 7.695l.377-.201"/></g><path fill="#161a1f" d="m13.067 10.017.82.496"/></g></g></svg>