<svg xmlns="http://www.w3.org/2000/svg" xmlns:xlink="http://www.w3.org/1999/xlink" width="1634.845" height="519.026"><linearGradient id="a" gradientUnits="userSpaceOnUse"><stop offset="0" stop-color="#191d23"/><stop offset="1" stop-color="#05070a"/></linearGradient><linearGradient xlink:href="#a" id="f" x1="3" x2="20.49" y1="3" y2="20.49"/><filter id="b" width="1.004" height="1.014" x="-.002" y="-.007" color-interpolation-filters="sRGB"><feGaussianBlur result="blur" stdDeviation=".05"/><feComposite in="SourceGraphic" in2="blur" operator="in" result="composite1"/><feComposite in="composite1" in2="composite1" operator="in" result="composite2"/></filter><linearGradient id="h" x1="3" x2="21" y1="3" y2="21" gradientUnits="userSpaceOnUse"><stop offset="0" stop-color="#494e8f"/><stop offset="1" stop-color="#6572cc"/></linearGradient><linearGradient xlink:href="#a" id="k" x1="1.565" x2="19.565" y1="2.043" y2="20.043"/><linearGradient xlink:href="#a" id="q" x1="2.007" x2="22" y1="4.023" y2="20"/><linearGradient xlink:href="#a" id="s" x1="29.295" x2="99.151" y1="67.993" y2="138.148"/><linearGradient xlink:href="#a" id="t" x1="9.445" x2="11.759" y1="10.832" y2="13.162"/><filter id="e" width="1.054" height="1.054" x="-.027" y="-.027" color-interpolation-filters="sRGB"><feGaussianBlur result="blur" stdDeviation=".01"/><feComposite in="SourceGraphic" in2="blur" operator="in" result="composite1"/><feComposite in="composite1" in2="composite1" operator="in" result="fbSourceGraphic"/><feColorMatrix in="fbSourceGraphic" result="fbSourceGraphicAlpha" values="0 0 0 -1 0 0 0 0 -1 0 0 0 0 -1 0 0 0 0 1 0"/><feColorMatrix in="fbSourceGraphic" values="1 0 0 0 0 0 1 0 0 0 0 0 1 0 0 0 0 0 1 1"/><feColorMatrix result="colormatrix2" type="hueRotate" values="0"/><feColorMatrix in="colormatrix2" result="colormatrix3" values="-1 0 0 0 1 0 -1 0 0 1 0 0 -1 0 1 0 0 0 1 0"/><feBlend in="colormatrix3" in2="colormatrix2" mode="darken" result="blend1"/><feBlend in2="blend1" mode="screen" result="blend2"/><feComposite in2="fbSourceGraphic" operator="in" result="fbSourceGraphic"/><feColorMatrix in="fbSourceGraphic" result="fbSourceGraphicAlpha" values="0 0 0 -1 0 0 0 0 -1 0 0 0 0 -1 0 0 0 0 1 0"/><feColorMatrix in="fbSourceGraphic" values="1 0 0 0 0 0 1 0 0 0 0 0 1 0 0 0 0 0 1 1"/><feColorMatrix result="colormatrix2" type="hueRotate" values="0"/><feColorMatrix in="colormatrix2" result="colormatrix3" values="-1 0 0 0 1 0 -1 0 0 1 0 0 -1 0 1 0 0 0 1 0"/><feBlend in="colormatrix3" in2="colormatrix2" mode="darken" result="blend1"/><feBlend in2="blend1" mode="screen" result="blend2"/><feComposite in2="fbSourceGraphic" operator="in"/></filter><filter id="v" color-interpolation-filters="sRGB"><feColorMatrix values="1 0 0 0 0 0 1 0 0 0 0 0 1 0 0 0 0 0 1 1"/><feColorMatrix result="colormatrix2" type="hueRotate" values="0"/><feColorMatrix in="colormatrix2" result="colormatrix3" values="-1 0 0 0 1 0 -1 0 0 1 0 0 -1 0 1 0 0 0 1 0"/><feBlend in="colormatrix3" in2="colormatrix2" mode="darken" result="blend1"/><feBlend in2="blend1" mode="screen" result="blend2"/><feComposite in2="SourceGraphic" operator="in"/></filter><filter id="u" width="1" height="1" x="0" y="0" color-interpolation-filters="sRGB"><feColorMatrix values="1 0 0 0 0 0 1 0 0 0 0 0 1 0 0 0 0 0 1 1"/><feColorMatrix result="colormatrix2" type="hueRotate" values="0"/><feColorMatrix in="colormatrix2" result="colormatrix3" values="-1 0 0 0 1 0 -1 0 0 1 0 0 -1 0 1 0 0 0 1 0"/><feBlend in="colormatrix3" in2="colormatrix2" mode="darken" result="blend1"/><feBlend in2="blend1" mode="screen" result="blend2"/><feComposite in2="SourceGraphic" operator="in"/></filter><filter id="r" width="1" height="1" x="0" y="0" color-interpolation-filters="sRGB"><feColorMatrix values="1 0 0 0 0 0 1 0 0 0 0 0 1 0 0 0 0 0 1 1"/><feColorMatrix result="colormatrix2" type="hueRotate" values="0"/><feColorMatrix in="colormatrix2" result="colormatrix3" values="-1 0 0 0 1 0 -1 0 0 1 0 0 -1 0 1 0 0 0 1 0"/><feBlend in="colormatrix3" in2="colormatrix2" mode="darken" result="blend1"/><feBlend in2="blend1" mode="screen" result="blend2"/><feComposite in2="SourceGraphic" operator="in"/></filter><filter id="l" width="1" height="1" x="0" y="0" color-interpolation-filters="sRGB"><feColorMatrix values="1 0 0 0 0 0 1 0 0 0 0 0 1 0 0 0 0 0 1 1"/><feColorMatrix result="colormatrix2" type="hueRotate" values="0"/><feColorMatrix in="colormatrix2" result="colormatrix3" values="-1 0 0 0 1 0 -1 0 0 1 0 0 -1 0 1 0 0 0 1 0"/><feBlend in="colormatrix3" in2="colormatrix2" mode="darken" result="blend1"/><feBlend in2="blend1" mode="screen" result="blend2"/><feComposite in2="SourceGraphic" operator="in"/></filter><filter id="j" width="1" height="1" x="0" y="0" color-interpolation-filters="sRGB"><feColorMatrix values="1 0 0 0 0 0 1 0 0 0 0 0 1 0 0 0 0 0 1 1"/><feColorMatrix result="colormatrix2" type="hueRotate" values="0"/><feColorMatrix in="colormatrix2" result="colormatrix3" values="-1 0 0 0 1 0 -1 0 0 1 0 0 -1 0 1 0 0 0 1 0"/><feBlend in="colormatrix3" in2="colormatrix2" mode="darken" result="blend1"/><feBlend in2="blend1" mode="screen" result="blend2"/><feComposite in2="SourceGraphic" operator="in"/></filter><filter id="g" width="1" height="1" x="0" y="0" color-interpolation-filters="sRGB"><feColorMatrix values="1 0 0 0 0 0 1 0 0 0 0 0 1 0 0 0 0 0 1 1"/><feColorMatrix result="colormatrix2" type="hueRotate" values="0"/><feColorMatrix in="colormatrix2" result="colormatrix3" values="-1 0 0 0 1 0 -1 0 0 1 0 0 -1 0 1 0 0 0 1 0"/><feBlend in="colormatrix3" in2="colormatrix2" mode="darken" result="blend1"/><feBlend in2="blend1" mode="screen" result="blend2"/><feComposite in2="SourceGraphic" operator="in"/></filter><linearGradient id="d" x1="4.75" x2="14.243" y1="9.503" y2="9.503" gradientUnits="userSpaceOnUse"><stop offset="0" stop-color="#2d394a"/><stop offset="1" stop-color="#35475e"/></linearGradient><g filter="url(#b)" transform="translate(-86.151 -84.309)scale(29.27387)"><circle cx="9.497" cy="9.503" r="4.503" fill="url(#d)" filter="url(#e)" transform="matrix(1.0572 0 0 1.03575 -.453 -.317)"/><path fill="url(#f)" d="M15.5 14h-.79l-.28-.27A6.47 6.47 0 0 0 16 9.5 6.5 6.5 0 1 0 9.5 16c1.61 0 3.09-.59 4.23-1.57l.27.28v.79l5 4.99c.528-.963.528-.963 1.49-1.49zm-6 0C7.01 14 5 11.99 5 9.5S7.01 5 9.5 5 14 7.01 14 9.5 11.99 14 9.5 14" filter="url(#g)"/><g fill="url(#h)" filter="url(#j)" transform="matrix(.13257 0 0 .13257 6.992 5.517)"><path fill="url(#k)" d="M19.565 18.043v-14c0-1.1-.9-2-2-2h-14c-1.1 0-2 .9-2 2v14c0 1.1.9 2 2 2h14c1.1 0 2-.9 2-2m-12.5-5.5 2.5 3.01 3.5-4.51 4.5 6h-14z"/></g><g filter="url(#l)" transform="matrix(.1156 0 0 .14914 10.611 7.098)"><path fill="url(#q)" d="m18 4 2 4h-3l-2-4h-2l2 4h-3l-2-4H8l2 4H7L5 4H4c-1.1 0-1.99.9-1.99 2L2 18c0 1.1.9 2 2 2h16c1.1 0 2-.9 2-2V4z"/></g><g filter="url(#r)" transform="translate(5.01 6.453)scale(.03416)"><path fill="url(#s)" d="M91.39 67.993H37.057c-4.27 0-7.762 3.507-7.762 7.795v54.565c0 4.287 3.493 7.795 7.762 7.795H91.39c4.269 0 7.761-3.508 7.761-7.795V75.788c0-4.288-3.492-7.795-7.761-7.795m-19.405 54.565H44.82v-7.795h27.166zm11.643-15.59h-38.81v-7.795h38.81zm0-15.59h-38.81v-7.795h38.81z"/></g><path fill="url(#t)" d="M11.56 10.745H9.665a.314.314 0 0 0-.316.31v1.865c0 .171.143.311.316.311h1.897c.174 0 .316-.14.316-.31v-1.866c0-.17-.142-.31-.316-.31m-.316.777h-.474v.854a.39.39 0 0 1-.395.389c-.218 0-.395-.174-.395-.389s.177-.388.395-.388c.09 0 .17.03.237.079v-.856h.632z" filter="url(#u)"/><g filter="url(#v)" transform="matrix(.0503 -.03312 .04943 .038 7.71 11.148)"/><g stroke="#05070a" stroke-linecap="round" stroke-linejoin="bevel" stroke-width=".171" filter="url(#e)"><g fill="#6c5353"><path d="m7.272 8.09-1.052.691M8.342 8.881l.978-.707M8.321 11.09l1.105-.238M12.923 10.081l-1.153.742M9.513 8.09l1.37-.265M6.148 11.139l3.245 1.94M9.5 5.858l3.547 1.837M9.664 10.745l1.267-.728M6.058 8.889l-.87-.681M7.258 5.886l-.176-.185M9.5 5.858l.399-.84M11.761 13.16l.166.132M9.508 13.19l-.784.744M6.047 11.041l-.672.264M9.455 8.137l.094 2.63M13.154 7.695l.377-.201"/></g><path fill="#161a1f" d="m13.067 10.017.82.496"/></g><g fill="#fff"><path d="M31.633 5.954q0 .368-.111.698-.112.33-.296.591a2.1 2.1 0 0 1-.955.754q.58.212.86 1.027l.335.95q.19.558.558.826-.167.223-.502.374-.336.15-.737.15-.402 0-.626-.228-.222-.23-.413-.799l-.402-1.172a1.2 1.2 0 0 0-.33-.514q-.205-.178-.619-.178h-.458v2.791a5 5 0 0 1-.893.067q-.535 0-.882-.067v-7.57l.079-.079q.971-.022 1.635-.033.665-.01 1.044-.011.615 0 1.117.15.503.152.854.453.352.3.547.76.195.457.196 1.06zM27.937 4.87v2.188q.503 0 .86-.017.358-.015.575-.134.218-.117.33-.33c.112-.212.111-.345.111-.613q0-1.083-1.05-1.083H28.3zm9.078 4.131h-2.914q.023.503.257.782t.77.279q.27 0 .62-.079a6 6 0 0 0 .81-.257q.368.38.457 1.028-.893.636-2.188.636-.704 0-1.178-.223a2 2 0 0 1-.77-.626 2.5 2.5 0 0 1-.42-.949 5.4 5.4 0 0 1-.122-1.194q0-.626.15-1.156.152-.53.458-.921.308-.391.782-.614.474-.224 1.111-.224.536 0 .966.179t.731.491.464.748.162.95q0 .68-.146 1.15zM34.09 7.796h1.474v-.123q0-.413-.184-.68-.184-.27-.553-.269-.357 0-.53.251-.174.252-.207.821zm8.408 1.206.279.815q.224.737.536.95-.49.546-1.172.546-.369 0-.559-.173t-.335-.608l-.335-.96q-.111-.347-.256-.464a.6.6 0 0 0-.391-.117q-.246 0-.346.01v2.223a4.7 4.7 0 0 1-.849.067q-.48 0-.848-.067v-8.14l.078-.079h.67q.524 0 .737.235t.212.815v3.506h.179q.201 0 .312-.2l.58-1.117q.314-.637.984-.637.324 0 .971.023l.067.089-.86 1.663a1.8 1.8 0 0 1-.569.66q.67.245.916.96zm5.404-2.858q.804.803.804 2.3 0 .67-.173 1.217a2.6 2.6 0 0 1-.502.932q-.33.385-.81.592t-1.105.207-1.1-.213a2.25 2.25 0 0 1-.804-.597 2.6 2.6 0 0 1-.497-.932 4.1 4.1 0 0 1-.167-1.206q0-.67.167-1.212.168-.541.491-.932.324-.39.804-.603t1.106-.212q1.105 0 1.786.659m-1.775.647a.63.63 0 0 0-.397.117.8.8 0 0 0-.24.319q-.089.2-.122.463a5 5 0 0 0-.033.564q0 .469.027.81.027.34.112.569a.7.7 0 0 0 .235.34.65.65 0 0 0 .396.112q.491 0 .648-.43c.157-.43.156-.694.156-1.222q0-.804-.156-1.223-.157-.42-.626-.419zM26.128 19.406q.033-.367.229-.737.195-.368.463-.602 1.195.725 2.267.725.469 0 .687-.212a.7.7 0 0 0 .217-.525q0-.525-.703-.826l-1.318-.558q-.77-.346-1.183-.832t-.413-1.234a2.12 2.12 0 0 1 .787-1.675q.374-.312.888-.485a3.6 3.6 0 0 1 1.138-.173q1.25 0 2.524.636-.056.86-.603 1.34-1.14-.547-2.01-.547-.446 0-.67.2a.6.6 0 0 0-.223.458q0 .435.658.704l1.34.57q.85.357 1.268.915a2.1 2.1 0 0 1 .418 1.295q0 .525-.19.96-.19.436-.563.754a2.7 2.7 0 0 1-.933.497q-.558.18-1.306.179-1.451 0-2.77-.826zm11.065-1.563H34.28q.022.503.257.782.234.279.77.279.268 0 .62-.078a6 6 0 0 0 .81-.257q.368.38.457 1.027-.893.636-2.188.636-.705 0-1.178-.223a2 2 0 0 1-.77-.625 2.5 2.5 0 0 1-.42-.95 5.4 5.4 0 0 1-.122-1.194q0-.625.15-1.156.152-.53.458-.92.308-.392.782-.615t1.111-.223q.536 0 .966.178.43.18.731.492.302.312.464.748.162.435.162.949 0 .68-.146 1.15zm-2.925-1.206h1.474v-.123q0-.413-.184-.68-.184-.27-.553-.269-.357 0-.53.252-.174.25-.207.82m8.866 2.624a1.9 1.9 0 0 1-.213.503 1.3 1.3 0 0 1-.323.39q-.782-.023-1.206-.591-.726.67-1.575.67-.435 0-.759-.14a1.6 1.6 0 0 1-.547-.374 1.5 1.5 0 0 1-.335-.541 1.9 1.9 0 0 1-.111-.643q0-.48.172-.843.174-.362.475-.603.302-.24.704-.362.402-.124.86-.123.255 0 .452.005.195.006.34.017v-.212q0-.703-.726-.703-.469 0-1.641.357-.335-.39-.424-1.217.268-.101.597-.19a9.5 9.5 0 0 1 1.357-.262q.334-.04.603-.04.39 0 .753.112t.637.34c.274.229.327.35.435.593q.162.363.162.865v2.267q0 .513.313.726zm-3.372-.837q0 .525.602.525.313 0 .704-.324v-.893q-.224-.012-.374-.017l-.23-.006q-.703 0-.703.715zm4.03-3.127q.056-.223.213-.496.156-.274.312-.397 1.028.078 1.43 1.016.424-1.005 1.395-1.005.291 0 .737.09 0 .345-.117.82a3 3 0 0 1-.318.81 2.7 2.7 0 0 0-.57-.112q-.558 0-.915.57v3.472a5 5 0 0 1-.866.067 5 5 0 0 1-.876-.067v-3.607q0-.837-.424-1.16zm7.381 1.664v-.145q0-.625-.134-.91t-.502-.285q-.39 0-.547.385c-.157.385-.157.683-.157 1.279q0 .447.062.748.06.301.178.486a.7.7 0 0 0 .296.268q.18.084.425.084.255 0 .57-.112.311-.111.67-.357a1 1 0 0 1 .206.162q.106.105.195.24a1.9 1.9 0 0 1 .257.57q-.369.39-.96.625a3.3 3.3 0 0 1-1.206.234q-1.195 0-1.831-.781-.637-.782-.637-2.222 0-.738.207-1.284.206-.548.547-.905.34-.357.782-.536.44-.18.92-.179.492.001.9.134.407.134.703.38t.458.586.162.754q0 .469-.274.659-.273.19-.675.19-.335 0-.614-.068zm7.28-.58v2.288q0 .75.28 1.106-.425.38-1.028.38-.58 0-.793-.269-.212-.267-.212-.815v-2.378q0-.38-.1-.558-.102-.18-.391-.179-.168 0-.38.089a1.6 1.6 0 0 0-.435.29v3.73a4.7 4.7 0 0 1-.849.067q-.48 0-.848-.067v-8.14l.078-.078h.67q.536 0 .742.234.207.234.207.815v2.11q.749-.613 1.496-.613.748 0 1.156.541.407.542.407 1.446z"/></g></g></svg>